{
	"asset":{
		"generator":"Khronos glTF Blender I/O v4.1.63",
		"version":"2.0"
	},
	"scene":0,
	"scenes":[
		{
			"name":"Scene",
			"nodes":[
				5
			]
		}
	],
	"nodes":[
		{
			"mesh":0,
			"name":"Traffic_Light_green_traffic_light_shader_green_0"
		},
		{
			"children":[
				0
			],
			"name":"Traffic_Light_green",
			"scale":[
				0.9996639490127563,
				0.9996639490127563,
				0.9996639490127563
			]
		},
		{
			"children":[
				1
			],
			"name":"RootNode"
		},
		{
			"children":[
				2
			],
			"name":"Object_2"
		},
		{
			"children":[
				3
			],
			"name":"d947eecda9ee42e5b000732949b35764.fbx",
			"rotation":[
				0.70710688829422,
				0,
				0,
				0.7071066498756409
			]
		},
		{
			"children":[
				4
			],
			"name":"Sketchfab_model",
			"rotation":[
				-0.70710688829422,
				0,
				0,
				0.7071066498756409
			]
		}
	],
	"materials":[
		{
			"doubleSided":true,
			"emissiveFactor":[
				1,
				1,
				1
			],
			"emissiveTexture":{
				"index":0
			},
			"name":"traffic_light_shader_green",
			"normalTexture":{
				"index":1
			},
			"pbrMetallicRoughness":{
				"baseColorTexture":{
					"index":2
				},
				"metallicFactor":0,
				"roughnessFactor":0.4000000059604645
			}
		}
	],
	"meshes":[
		{
			"name":"Traffic_Light_green_traffic_light_shader_green_0",
			"primitives":[
				{
					"attributes":{
						"POSITION":0,
						"NORMAL":1,
						"TEXCOORD_0":2
					},
					"indices":3,
					"material":0
				}
			]
		}
	],
	"textures":[
		{
			"sampler":0,
			"source":0
		},
		{
			"sampler":0,
			"source":1
		},
		{
			"sampler":0,
			"source":2
		}
	],
	"images":[
		{
			"mimeType":"image/jpeg",
			"name":"traffic_light_shader_green_emissive",
			"uri":"textures/traffic_light_shader_green_emissive.jpg"
		},
		{
			"mimeType":"image/png",
			"name":"traffic_light_shader_green_normal",
			"uri":"textures/traffic_light_shader_green_normal.png"
		},
		{
			"mimeType":"image/png",
			"name":"traffic_light_shader_green_baseColor",
			"uri":"textures/traffic_light_shader_green_baseColor.png"
		}
	],
	"accessors":[
		{
			"bufferView":0,
			"componentType":5126,
			"count":2303,
			"max":[
				19.415010452270508,
				378.6895751953125,
				38.32835388183594
			],
			"min":[
				-29.812551498413086,
				-0.0013004372594878078,
				-61.246604919433594
			],
			"type":"VEC3"
		},
		{
			"bufferView":1,
			"componentType":5126,
			"count":2303,
			"type":"VEC3"
		},
		{
			"bufferView":2,
			"componentType":5126,
			"count":2303,
			"type":"VEC2"
		},
		{
			"bufferView":3,
			"componentType":5123,
			"count":8808,
			"type":"SCALAR"
		}
	],
	"bufferViews":[
		{
			"buffer":0,
			"byteLength":27636,
			"byteOffset":0,
			"target":34962
		},
		{
			"buffer":0,
			"byteLength":27636,
			"byteOffset":27636,
			"target":34962
		},
		{
			"buffer":0,
			"byteLength":18424,
			"byteOffset":55272,
			"target":34962
		},
		{
			"buffer":0,
			"byteLength":17616,
			"byteOffset":73696,
			"target":34963
		}
	],
	"samplers":[
		{
			"magFilter":9729,
			"minFilter":9987
		}
	],
	"buffers":[
		{
			"byteLength":91312,
			"uri":"green.bin"
		}
	]
}
